Coordinates
version=1
nRows=5
nColumns=46
inDegrees=yes

Units are S.I. units (second, meters, Newtons, ...)
Angles are in degrees.

endheader
time	pelvis_tilt	pelvis_list	pelvis_rotation	pelvis_tx	pelvis_ty	pelvis_tz	bb_angle	bb_tx	bb_ty	bb_tz	hip_flexion_r	hip_adduction_r	hip_rotation_r	knee_angle_r	knee_angle_r_beta	ankle_angle_r	subtalar_angle_r	mtp_angle_r	crank_angle_r	hip_flexion_l	hip_adduction_l	hip_rotation_l	knee_angle_l	knee_angle_l_beta	ankle_angle_l	subtalar_angle_l	mtp_angle_l	crank_angle_l	lumbar_extension	lumbar_bending	lumbar_rotation	arm_flex_r	arm_add_r	arm_rot_r	elbow_flex_r	pro_sup_r	wrist_flex_r	wrist_dev_r	arm_flex_l	arm_add_l	arm_rot_l	elbow_flex_l	pro_sup_l	wrist_flex_l	wrist_dev_l
      0.00000000	    -39.20704474	     -0.73625461	      0.71830235	      0.05570699	      0.96944838	     -0.21715806	      0.00000000	      0.50000000	      0.00000000	      0.25000000	    101.03069228	     -8.60209107	     -4.10874299	     68.57590315	      1.19687530	     -4.86082867	     -5.02493092	      0.00000000	      0.00000000	     88.08102354	     -9.05983932	      0.13805849	     90.81462361	      1.58501419	    -10.62502524	    -11.50205815	      0.00000000	      0.00000000	    -26.51418517	      0.96436042	     -0.50212262	     88.95596250	     -7.31648435	     47.13361464	     34.38203642	     31.00659711	      0.00000000	      0.00000000	     87.68900700	    -15.81018721	     49.34072928	     41.75790254	     32.48174006	      0.00000000	      0.00000000
      0.00500000	    -39.22388243	     -0.77538953	      0.71707521	      0.05575199	      0.96938862	     -0.21712991	      0.00000000	      0.50000000	      0.00000000	      0.25000000	    101.08356773	     -8.59362433	     -4.13145224	     68.65478544	      1.19825205	     -4.78647228	     -5.14105285	      0.00000000	      0.00000000	     88.07558330	     -9.07021677	      0.16851878	     90.78003655	      1.58441053	    -10.57368950	    -11.55057775	      0.00000000	      0.00000000	    -26.48204271	      1.03316609	     -0.53680350	     88.94434245	     -7.14883033	     46.75934065	     33.96644699	     33.12997002	      0.00000000	      0.00000000	     87.73188023	    -16.23006220	     50.09294359	     41.77037857	     34.76051895	      0.00000000	      0.00000000
      0.01000000	    -39.25798293	     -0.78775639	      0.67280025	      0.05580528	      0.96934084	     -0.21708508	      0.00000000	      0.50000000	      0.00000000	      0.25000000	    101.14904445	     -8.55402396	     -4.13965360	     68.70573316	      1.19914126	     -4.76523984	     -5.12344646	      0.00000000	      0.00000000	     88.07584731	     -9.14718017	      0.15565895	     90.70626202	      1.58312292	    -10.61989333	    -11.43680163	      0.00000000	      0.00000000	    -26.42681279	      1.03111885	     -0.51287701	     88.95520532	     -6.97287334	     46.46039068	     33.43875150	     34.15518185	      0.00000000	      0.00000000	     87.69065331	    -16.13235749	     49.62931818	     41.38239543	     35.96952655	      0.00000000	      0.00000000
      0.01500000	    -39.28452380	     -0.76006928	      0.63654295	      0.05579032	      0.96937452	     -0.21715071	      0.00000000	      0.50000000	      0.00000000	      0.25000000	    101.19895617	     -8.52098359	     -4.09602585	     68.72962602	      1.19955827	     -4.71039796	     -5.06000732	      0.00000000	      0.00000000	     88.01117803	     -9.16096751	      0.10577303	     90.58900152	      1.58107634	    -10.66888145	    -11.33577841	      0.00000000	      0.00000000	    -26.39711997	      0.99200594	     -0.44386412	     88.92743624	     -7.03010357	     46.13213901	     33.35334391	     35.46235273	      0.00000000	      0.00000000	     87.80007102	    -15.93474953	     49.71305982	     40.72463492	     37.45181956	      0.00000000	      0.00000000
      0.02000000	    -39.31724350	     -0.84841119	      0.59302158	      0.05569054	      0.96894980	     -0.21717446	      0.00000000	      0.50000000	      0.00000000	      0.25000000	    101.30924697	     -8.47853211	     -4.14363424	     68.86681955	      1.20195275	     -4.71720120	     -5.07416961	      0.00000000	      0.00000000	     87.99804198	     -9.16033582	      0.17853525	     90.50761013	      1.57965579	    -10.61982410	    -11.62708299	      0.00000000	      0.00000000	    -26.33731822	      1.09282102	     -0.38607055	     88.93214842	     -6.82368167	     46.19385126	     32.79755094	     35.90381653	      0.00000000	      0.00000000	     87.64753618	    -15.82511449	     48.99817371	     40.71821805	     37.89101151	      0.00000000	      0.00000000
